<svg enable-background="new 0 0 20 20" viewBox="0 0 20 20" xmlns="http://www.w3.org/2000/svg"><path d="m13.2 12.2-3.2 3.2c1 .7 2.2 1 3.5 1 3.5 0 6.4-2.9 6.4-6.4s-2.9-6.4-6.4-6.4c-1.3 0-2.5.4-3.5 1l3.2 3.2c1.2 1.2 1.2 3.2 0 4.4z"/><path d="m5.8 10c0-2.1.9-4.1 2.3-5.5l-.4-.4c-.3-.3-.8-.5-1.3-.5-.4 0-.9.2-1.2.5l-4.6 4.6c-.4.3-.6.8-.6 1.3s.2.9.5 1.3l4.6 4.6c.3.3.8.5 1.3.5s.9-.2 1.3-.5l.4-.4c-1.4-1.4-2.3-3.4-2.3-5.5z"/><path d="m7.1 10c0 1.8.7 3.4 1.9 4.6l3.3-3.3c.7-.7.7-1.9 0-2.6l-3.3-3.3c-1.2 1.2-1.9 2.8-1.9 4.6z"/></svg>